HIERARCHY
ROOT Hips
{
	OFFSET 0.000000 0.000000 0.000000
	CHANNELS 6 Xposition Yposition Zposition Zrotation Yrotation Xrotation 
	JOINT LHipJoint
	{
		OFFSET 0.000000 0.000000 0.000000
		CHANNELS 3 Zrotation Yrotation Xrotation
		JOINT LeftUpLeg
		{
			OFFSET 1.363060 -1.794630 0.839290
			CHANNELS 3 Zrotation Yrotation Xrotation
			JOINT LeftLeg
			{
				OFFSET 2.448110 -6.726130 0.000000
				CHANNELS 3 Zrotation Yrotation Xrotation
				JOINT LeftFoot
				{
					OFFSET 2.562200 -7.039590 0.000000
					CHANNELS 3 Zrotation Yrotation Xrotation
					JOINT LeftToeBase
					{
						OFFSET 0.157640 -0.433110 2.322550
						CHANNELS 3 Zrotation Yrotation Xrotation
						End Site
						{
							OFFSET 0.000000 0.000000 0.000000
						}
					}
				}
			}
		}
	}
	JOINT RHipJoint
	{
		OFFSET 0.000000 0.000000 0.000000
		CHANNELS 3 Zrotation Yrotation Xrotation
		JOINT RightUpLeg
		{
			OFFSET -1.305520 -1.794630 0.839290
			CHANNELS 3 Zrotation Yrotation Xrotation
			JOINT RightLeg
			{
				OFFSET -2.542530 -6.985550 0.000000
				CHANNELS 3 Zrotation Yrotation Xrotation
				JOINT RightFoot
				{
					OFFSET -2.568260 -7.056230 0.000000
					CHANNELS 3 Zrotation Yrotation Xrotation
					JOINT RightToeBase
					{
						OFFSET -0.164730 -0.452590 2.363150
						CHANNELS 3 Zrotation Yrotation Xrotation
						End Site
						{
							OFFSET 0.000000 0.000000 0.000000
						}
					}
				}
			}
		}
	}
}
MOTION
Frames: 30
Frame Time: 0.008333
26.135374 17.195827 2.529558 123.601777 -83.805683 -90.432934 -7.951275 1.560878 2.683059 -17.766420 -2.775899 -58.152793 -1.613786 2.508089 45.722219 2.022803 9.467676 -5.297867 0.956800 0.000000 -38.002800 12.433736 -3.249105 2.578377 0.583180 -1.181841 -9.260467 1.002716 0.058889 5.288540 -0.017555 0.351505 13.856045 -0.207900 -0.000000 -69.795100
25.908979 17.241930 2.531344 123.653418 -83.943526 -90.061566 -7.836858 1.688498 2.886483 -18.091058 -3.049948 -58.017834 -2.009573 2.288149 42.275786 1.837227 8.387871 -5.172120 0.930600 -0.000000 -39.068500 12.464620 -3.269822 2.554746 0.453931 -0.902052 -9.444176 0.848314 -0.049166 6.217765 -0.151911 -0.446960 14.922474 -0.474400 -0.000000 -68.653800
25.683063 17.277445 2.533520 123.510493 -84.115198 -89.504388 -7.725006 1.803138 3.098605 -18.350474 -3.355167 -57.799521 -2.413144 2.033551 38.759610 1.639195 7.300120 -4.971439 0.906600 -0.000000 -39.959100 12.477515 -3.261436 2.536245 0.375815 -0.456497 -9.632153 0.668279 -0.144301 7.445530 -0.346098 -1.740186 15.366574 -0.954100 -0.000001 -67.296300
25.458258 17.301599 2.536837 123.189455 -84.333063 -88.804645 -7.627057 1.890613 3.306512 -18.518983 -3.661278 -57.489043 -2.805163 1.747427 35.264186 1.437562 6.257163 -4.687586 0.885700 0.000001 -40.617700 12.465173 -3.229736 2.516203 0.371684 0.134878 -9.787968 0.470689 -0.230164 8.960006 -0.596092 -3.449276 15.262808 -1.600300 -0.000000 -65.843700
25.234369 17.313195 2.541040 122.712625 -84.572048 -88.005245 -7.540977 1.951644 3.506808 -18.614840 -3.970688 -57.080103 -3.165698 1.437503 31.893609 1.249241 5.340545 -4.337122 0.871300 0.000001 -40.973600 12.441597 -3.171854 2.478909 0.407346 0.751757 -9.952739 0.269059 -0.316704 10.851458 -0.882281 -5.338192 14.638955 -2.282700 -0.000000 -64.232500
25.011879 17.311694 2.546893 122.103720 -84.844123 -87.154792 -7.476644 1.976423 3.682831 -18.620044 -4.252667 -56.596483 -3.471134 1.123150 28.807850 1.088018 4.595553 -3.981992 0.859700 0.000000 -40.978700 12.402228 -3.098358 2.420732 0.501228 1.368750 -10.099537 0.075561 -0.409821 13.083626 -1.192100 -7.273943 13.629693 -2.916600 0.000001 -62.608499
24.790516 17.296272 2.553996 121.378783 -85.126698 -86.276918 -7.428925 1.972862 3.830502 -18.559262 -4.515215 -56.067483 -3.706024 0.826258 26.155269 0.971530 4.077624 -3.706129 0.851200 0.000000 -40.621400 12.362298 -3.013665 2.334182 0.615067 1.895217 -10.266608 -0.097183 -0.519508 15.687364 -1.497201 -9.044494 12.325127 -3.395400 0.000000 -60.980100
24.570502 17.266361 2.561925 120.553435 -85.400193 -85.383295 -7.390085 1.951821 3.949020 -18.456403 -4.775577 -55.538110 -3.862477 0.569295 24.074275 0.914949 3.823441 -3.611288 0.845200 -0.000000 -39.916600 12.336351 -2.924492 2.218153 0.709069 2.273613 -10.491116 -0.241205 -0.653604 18.657188 -1.768912 -10.492320 10.833338 -3.659000 0.000000 -59.416600
24.351891 17.222082 2.570977 119.626089 -85.680818 -84.464942 -7.363268 1.914091 4.027972 -18.304140 -5.017182 -55.071371 -3.936938 0.375977 22.709755 0.923755 3.813364 -3.812480 0.829700 0.000000 -38.895400 12.320559 -2.845488 2.081165 0.797429 2.533125 -10.758506 -0.354763 -0.813543 21.904072 -1.991198 -11.582300 9.295339 -3.724000 0.000000 -58.079301
24.134731 17.163307 2.580296 118.620327 -85.943934 -83.522526 -7.335429 1.873347 4.074419 -18.131946 -5.272125 -54.709072 -3.936322 0.256974 22.126154 1.005582 4.050201 -4.392305 0.794300 -0.000001 -37.586300 12.330671 -2.779085 1.928355 0.829901 2.647355 -11.113811 -0.440797 -1.001054 25.404674 -2.143689 -12.236768 7.779145 -3.597699 -0.000000 -57.025000
23.918791 17.090456 2.589553 117.564058 -86.186107 -82.569320 -7.303718 1.832864 4.089331 -17.948189 -5.544368 -54.487910 -3.868582 0.218822 22.364771 1.159835 4.499155 -5.407735 0.716800 -0.000000 -36.019500 12.367865 -2.730551 1.770875 0.794537 2.644186 -11.562280 -0.506362 -1.212644 29.092713 -2.220951 -12.463661 6.345086 -3.327100 -0.000000 -56.299900
23.703750 17.004084 2.598293 116.509543 -86.398027 -81.642471 -7.267033 1.794400 4.079107 -17.761228 -5.841307 -54.424141 -3.743172 0.259910 23.413147 1.382540 5.123258 -6.870121 0.571900 0.000000 -34.225600 12.432666 -2.702252 1.621189 0.676514 2.548848 -12.110937 -0.559882 -1.443164 32.917192 -2.224835 -12.290455 5.008262 -2.956900 0.000000 -55.807500
23.489382 16.905330 2.606677 115.497548 -86.590980 -80.780356 -7.234142 1.751876 4.045346 -17.564617 -6.138772 -54.526433 -3.569570 0.376196 25.233104 1.660059 5.855359 -8.752468 0.332100 0.000001 -32.249600 12.515176 -2.698738 1.494314 0.498526 2.412125 -12.741083 -0.610874 -1.685035 36.805591 -2.170258 -11.808963 3.788734 -2.545201 -0.000000 -55.590700
23.275558 16.795789 2.614991 114.527548 -86.776637 -79.987420 -7.214614 1.697239 3.988519 -17.345190 -6.414625 -54.766789 -3.356951 0.556209 27.727040 1.975072 6.641103 -10.981669 -0.018400 0.000000 -30.180400 12.606517 -2.720317 1.395161 0.286283 2.265837 -13.426310 -0.666676 -1.932681 40.706907 -2.074715 -11.114014 2.672011 -2.132000 0.000000 -55.520300
23.062011 16.677659 2.623491 113.559128 -86.966775 -79.225856 -7.216756 1.625428 3.911471 -17.092365 -6.648160 -55.098023 -3.117303 0.782481 30.742566 2.306162 7.433087 -13.449651 -0.478900 -0.000000 -28.162400 12.699968 -2.764065 1.324204 0.065807 2.131030 -14.140754 -0.733861 -2.180628 44.571016 -1.958482 -10.316554 1.645519 -1.749700 0.000000 -55.536100
22.848234 16.553400 2.632354 112.538099 -87.165064 -78.434834 -7.244681 1.537097 3.824340 -16.800972 -6.839565 -55.470714 -2.863629 1.034136 34.093882 2.633898 8.204164 -16.034146 -1.032300 0.000000 -26.370700 12.792705 -2.822786 1.278243 -0.149968 2.011865 -14.883210 -0.817418 -2.425081 48.373909 -1.839521 -9.517155 0.688117 -1.416099 -0.000000 -55.550999
22.634348 16.426320 2.641550 111.336239 -87.368996 -77.488512 -7.297754 1.439328 3.732968 -16.483797 -6.983450 -55.814213 -2.612023 1.290786 37.573751 2.939488 8.925320 -18.617456 -1.649400 -0.000000 -24.991900 12.884295 -2.886723 1.247819 -0.356706 1.897411 -15.636849 -0.920958 -2.662627 52.079791 -1.734006 -8.813459 -0.205482 -1.142300 -0.000000 -55.533800
22.419749 16.300181 2.650978 109.811933 -87.572588 -76.246991 -7.373065 1.343262 3.642115 -16.161645 -7.073469 -56.063440 -2.377917 1.536359 40.989247 3.208823 9.569085 -21.103986 -2.295300 -0.000000 -24.175000 12.974284 -2.946043 1.223023 -0.555148 1.769985 -16.392098 -1.045653 -2.890442 55.658279 -1.653789 -8.282350 -1.041114 -0.929400 -0.000000 -55.409600
22.204185 16.178691 2.660429 107.877263 -87.762093 -74.617518 -7.463619 1.262697 3.556902 -15.863443 -7.112289 -56.168354 -2.173638 1.759514 44.177948 3.435974 10.120009 -23.427017 -2.936200 0.000000 -23.988100 13.064726 -2.990717 1.195984 -0.760075 1.606746 -17.154194 -1.191083 -3.106417 59.086523 -1.605956 -7.972179 -1.815638 -0.772099 0.000000 -55.163000
21.987652 16.065632 2.669691 105.524121 -87.924367 -72.591914 -7.562999 1.208080 3.477560 -15.614866 -7.095140 -56.086743 -2.007761 1.953092 47.012981 3.620259 10.568432 -25.545887 -3.544000 -0.000000 -24.418200 13.155861 -3.013216 1.160171 -0.985926 1.388494 -17.928394 -1.354357 -3.309508 62.339764 -1.593342 -7.903051 -2.524602 -0.661100 -0.000000 -54.761300
21.763388 15.960166 2.690447 88.143414 -88.202676 -55.393287 -7.734675 1.305457 3.697272 -14.851910 -7.764500 -56.196185 -1.830357 2.169529 49.518045 3.767045 10.970309 -27.328156 -4.056900 0.000000 -25.589000 13.132120 -2.878458 0.982465 -0.712096 0.505821 -18.733951 -1.539270 -3.356935 65.274496 -1.623428 -8.150882 -3.157368 -0.596900 0.000000 -54.085800
21.543796 15.874027 2.698850 85.178199 -88.259646 -52.798746 -7.842931 1.318956 3.619716 -14.755716 -7.604647 -55.650436 -1.755607 2.294923 51.397968 3.877094 11.224309 -28.989843 -4.547300 0.000000 -26.923300 13.216585 -2.840412 0.919583 -1.018115 0.151049 -19.558290 -1.718324 -3.531058 68.115523 -1.673628 -8.501362 -3.736735 -0.542800 0.000000 -53.264000
21.321988 15.805185 2.706849 82.737437 -88.275851 -50.745459 -7.951722 1.351139 3.534514 -14.732242 -7.360385 -54.836417 -1.723037 2.374588 52.733475 3.960863 11.405137 -30.418545 -4.971200 0.000000 -28.427100 13.292430 -2.784772 0.844894 -1.364839 -0.264428 -20.425654 -1.894637 -3.700584 70.713010 -1.744009 -8.984092 -4.258049 -0.502801 0.000000 -52.214700
21.097814 15.755378 2.714397 81.175819 -88.262170 -49.585651 -8.058285 1.393874 3.437032 -14.769410 -7.020657 -53.741041 -1.729579 2.403203 53.503933 4.024716 11.535027 -31.614375 -5.331000 -0.000000 -29.903500 13.358037 -2.716366 0.763330 -1.747009 -0.723191 -21.350376 -2.061389 -3.868953 73.049447 -1.823917 -9.524555 -4.732825 -0.468299 -0.000000 -50.962200
20.870432 15.725590 2.721596 80.771460 -88.236383 -49.592136 -8.163247 1.438525 3.323510 -14.844353 -6.572470 -52.358395 -1.770771 2.376725 53.705413 4.072883 11.632345 -32.580081 -5.630800 -0.000000 -31.154300 13.409518 -2.640881 0.681298 -2.148804 -1.200016 -22.344039 -2.212343 -4.038211 75.111238 -1.901928 -10.045775 -5.178290 -0.431900 0.000000 -49.533099
20.639919 15.716107 2.728455 81.773919 -88.214688 -51.008409 -8.270221 1.476927 3.192806 -14.928972 -6.009129 -50.693641 -1.840155 2.292793 53.346737 4.107257 11.712558 -33.310690 -5.873600 0.000000 -32.069000 13.440801 -2.563601 0.606421 -2.548251 -1.663756 -23.418537 -2.342641 -4.208723 76.889610 -1.967856 -10.480515 -5.606030 -0.389000 0.000000 -48.029100
20.405465 15.726543 2.735060 84.446388 -88.207207 -54.091092 -8.387538 1.501414 3.045882 -14.992584 -5.329947 -48.760621 -1.929817 2.151230 52.448874 4.126673 11.782124 -33.796756 -6.058200 0.000000 -32.604400 13.442079 -2.490095 0.545185 -2.917811 -2.085100 -24.581709 -2.448127 -4.379172 78.378931 -2.013764 -10.777750 -6.025261 -0.337500 0.000000 -46.552800
20.167076 15.755971 2.741470 89.172551 -88.212901 -59.211438 -8.527690 1.506145 2.889003 -15.005125 -4.546063 -46.589524 -2.030139 1.954078 51.041427 4.127997 11.842467 -34.019626 -6.178800 -0.000000 -32.814000 13.400260 -2.425207 0.505198 -3.227986 -2.435650 -25.845441 -2.525550 -4.545608 79.575950 -2.035292 -10.909307 -6.435227 -0.278700 -0.000000 -45.209300
19.924230 15.803000 2.747804 96.408014 -88.214394 -66.817903 -8.710133 1.488300 2.727014 -14.940533 -3.670981 -44.211545 -2.131687 1.708117 49.166271 4.105007 11.884443 -33.959368 -6.224800 0.000000 -32.801501 13.296370 -2.371680 0.487291 -3.448215 -2.695555 -27.203146 -2.572161 -4.701278 80.478654 -2.031250 -10.867608 -6.834029 -0.215600 0.000000 -44.092200
19.676654 15.865960 2.754011 106.745518 -88.170188 -77.489297 -8.954057 1.456363 2.573085 -14.784540 -2.732306 -41.678649 -2.225744 1.425334 46.868236 4.052113 11.904116 -33.585526 -6.183700 -0.000000 -32.750400 13.112296 -2.322554 0.494226 -3.558774 -2.848941 -28.657870 -2.586919 -4.832588 81.086578 -2.003999 -10.665388 -7.207554 -0.153800 0.000000 -43.280700
